<svg width="17" height="17" viewBox="0 0 17 17" fill="none" xmlns="http://www.w3.org/2000/svg">
<path d="M8.5 0.78125C4.24393 0.78125 0.78125 4.24393 0.78125 8.5C0.78125 12.7561 4.24393 16.2188 8.5 16.2188C12.7561 16.2188 16.2188 12.7561 16.2188 8.5C16.2188 4.24393 12.7561 0.78125 8.5 0.78125ZM12.5171 5.91311L7.52959 11.8506C7.47488 11.9158 7.4068 11.9684 7.32997 12.005C7.25314 12.0415 7.16935 12.0611 7.08428 12.0625H7.07426C6.99104 12.0625 6.90875 12.0449 6.83274 12.0111C6.75672 11.9772 6.68868 11.9277 6.63303 11.8658L4.49553 9.49082C4.44124 9.43324 4.39901 9.3654 4.37133 9.29127C4.34364 9.21714 4.33104 9.13822 4.33429 9.05916C4.33753 8.98009 4.35655 8.90247 4.39022 8.83086C4.42389 8.75925 4.47154 8.69509 4.53036 8.64216C4.58918 8.58922 4.65799 8.54858 4.73274 8.52262C4.8075 8.49666 4.88668 8.4859 4.96565 8.49098C5.04462 8.49606 5.12178 8.51687 5.19259 8.5522C5.2634 8.58752 5.32643 8.63665 5.37799 8.69668L7.05867 10.564L11.6079 5.14939C11.71 5.03142 11.8543 4.95833 12.0098 4.94594C12.1653 4.93355 12.3194 4.98285 12.4389 5.08318C12.5583 5.18351 12.6335 5.32681 12.6481 5.48211C12.6628 5.63741 12.6157 5.79223 12.5171 5.91311Z" fill="#32B72F"/>
</svg>
